<svg xmlns="http://www.w3.org/2000/svg" xmlns:xlink="http://www.w3.org/1999/xlink" version="1.1" width="256" height="256" viewBox="0 0 256 256" xml:space="preserve">
<g style="stroke: none; stroke-width: 0; stroke-dasharray: none; stroke-linecap: butt; stroke-linejoin: miter; stroke-miterlimit: 10; fill: none; fill-rule: nonzero; opacity: 1;" transform="translate(1.4065934065934016 1.4065934065934016) scale(2.81 2.81)">
	<path d="M 37.474 68.951 c 8.648 -1.488 13.673 -7.554 16.23 -15.551 c 1.822 -5.3 6.941 -6.242 6.422 -8.687 c -0.13 -0.611 -0.644 -1.063 -1.255 -1.195 c -10.352 -2.25 -10.174 13.334 -15.353 13.903 c -2.993 0.16 -6.663 -0.751 -5.468 -3.534 c 2.248 -4.776 2.631 -10.246 -2.101 -10.401 c -1.213 -0.04 -2.178 1.017 -2.044 2.223 c 0.669 6.063 -6.981 9.372 -3.833 15.814 L 37.474 68.951 z" style="stroke: none; stroke-width: 1; stroke-dasharray: none; stroke-linecap: butt; stroke-linejoin: miter; stroke-miterlimit: 10; fill: rgb(255,206,190); fill-rule: nonzero; opacity: 1;" transform=" matrix(1 0 0 1 0 0) " stroke-linecap="round"/>
	<polygon points="37.47,68.95 27.75,80.75 9.15,80.75 30.07,61.52 " style="stroke: none; stroke-width: 1; stroke-dasharray: none; stroke-linecap: butt; stroke-linejoin: miter; stroke-miterlimit: 10; fill: rgb(237,84,105); fill-rule: nonzero; opacity: 1;" transform="  matrix(1 0 0 1 0 0) "/>
	<rect x="1" y="32.33" rx="0" ry="0" width="88" height="10.96" style="stroke: none; stroke-width: 1; stroke-dasharray: none; stroke-linecap: butt; stroke-linejoin: miter; stroke-miterlimit: 10; fill: rgb(255,195,101); fill-rule: nonzero; opacity: 1;" transform=" matrix(1 0 0 1 0 0) "/>
	<path d="M 50.611 37.964 H 39.389 c -2.247 0 -4.308 -1.245 -5.354 -3.234 l -1.259 -2.396 h 24.448 l -1.259 2.396 C 54.92 36.718 52.858 37.964 50.611 37.964 z" style="stroke: none; stroke-width: 1; stroke-dasharray: none; stroke-linecap: butt; stroke-linejoin: miter; stroke-miterlimit: 10; fill: rgb(237,84,105); fill-rule: nonzero; opacity: 1;" transform=" matrix(1 0 0 1 0 0) " stroke-linecap="round"/>
	<path d="M 89 44.296 H 1 c -0.552 0 -1 -0.448 -1 -1 V 32.333 c 0 -0.552 0.448 -1 1 -1 h 88 c 0.553 0 1 0.448 1 1 v 10.962 C 90 43.848 89.553 44.296 89 44.296 z M 2 42.296 h 86 v -8.962 H 2 V 42.296 z" style="stroke: none; stroke-width: 1; stroke-dasharray: none; stroke-linecap: butt; stroke-linejoin: miter; stroke-miterlimit: 10; fill: rgb(0,0,0); fill-rule: nonzero; opacity: 1;" transform=" matrix(1 0 0 1 0 0) " stroke-linecap="round"/>
	<path d="M 50.611 38.964 H 39.389 c -2.626 0 -5.017 -1.444 -6.239 -3.769 l -1.259 -2.396 c -0.163 -0.31 -0.152 -0.683 0.029 -0.982 s 0.506 -0.483 0.856 -0.483 h 24.448 c 0.351 0 0.675 0.183 0.855 0.483 c 0.182 0.3 0.192 0.672 0.03 0.982 l -1.259 2.396 C 55.629 37.52 53.238 38.964 50.611 38.964 z M 34.431 33.333 l 0.489 0.931 c 0.875 1.665 2.587 2.7 4.468 2.7 h 11.223 c 1.881 0 3.594 -1.034 4.469 -2.7 l 0.488 -0.931 H 34.431 z" style="stroke: none; stroke-width: 1; stroke-dasharray: none; stroke-linecap: butt; stroke-linejoin: miter; stroke-miterlimit: 10; fill: rgb(0,0,0); fill-rule: nonzero; opacity: 1;" transform=" matrix(1 0 0 1 0 0) " stroke-linecap="round"/>
	<path d="M 44.598 26.901 c -0.254 0 -0.507 -0.096 -0.702 -0.288 c -0.394 -0.388 -0.397 -1.021 -0.01 -1.414 c 2.4 -2.433 2.367 -5.196 -0.105 -8.695 c -1.912 -2.725 -1.915 -4.986 -0.012 -7.808 c 0.31 -0.458 0.93 -0.579 1.388 -0.27 c 0.458 0.309 0.579 0.93 0.27 1.388 c -1.446 2.144 -1.448 3.49 -0.011 5.538 c 3.044 4.308 3.009 8.095 -0.106 11.251 C 45.114 26.802 44.856 26.901 44.598 26.901 z" style="stroke: none; stroke-width: 1; stroke-dasharray: none; stroke-linecap: butt; stroke-linejoin: miter; stroke-miterlimit: 10; fill: rgb(0,0,0); fill-rule: nonzero; opacity: 1;" transform=" matrix(1 0 0 1 0 0) " stroke-linecap="round"/>
	<path d="M 38.177 26.901 c -0.254 0 -0.507 -0.096 -0.703 -0.288 c -0.393 -0.388 -0.397 -1.021 -0.009 -1.414 c 2.401 -2.433 2.368 -5.196 -0.105 -8.695 c -1.912 -2.725 -1.915 -4.986 -0.012 -7.808 c 0.309 -0.458 0.93 -0.579 1.388 -0.27 c 0.458 0.309 0.579 0.93 0.27 1.388 c -1.446 2.144 -1.448 3.49 -0.011 5.538 c 3.044 4.309 3.009 8.095 -0.106 11.252 C 38.693 26.802 38.435 26.901 38.177 26.901 z" style="stroke: none; stroke-width: 1; stroke-dasharray: none; stroke-linecap: butt; stroke-linejoin: miter; stroke-miterlimit: 10; fill: rgb(0,0,0); fill-rule: nonzero; opacity: 1;" transform=" matrix(1 0 0 1 0 0) " stroke-linecap="round"/>
	<path d="M 51.019 26.901 c -0.254 0 -0.508 -0.096 -0.702 -0.288 c -0.394 -0.388 -0.397 -1.021 -0.01 -1.414 c 2.4 -2.433 2.367 -5.196 -0.104 -8.695 c -1.913 -2.725 -1.916 -4.986 -0.013 -7.808 c 0.309 -0.458 0.931 -0.579 1.389 -0.27 c 0.457 0.309 0.578 0.93 0.27 1.388 c -1.445 2.144 -1.448 3.49 -0.011 5.538 c 3.044 4.308 3.009 8.095 -0.106 11.251 C 51.535 26.802 51.276 26.901 51.019 26.901 z" style="stroke: none; stroke-width: 1; stroke-dasharray: none; stroke-linecap: butt; stroke-linejoin: miter; stroke-miterlimit: 10; fill: rgb(0,0,0); fill-rule: nonzero; opacity: 1;" transform=" matrix(1 0 0 1 0 0) " stroke-linecap="round"/>
	<path d="M 37.474 69.951 c -0.264 0 -0.519 -0.104 -0.708 -0.294 l -7.401 -7.429 c -0.078 -0.078 -0.142 -0.168 -0.19 -0.267 c -2.004 -4.101 -0.112 -7.164 1.557 -9.868 c 1.253 -2.03 2.437 -3.947 2.18 -6.275 c -0.096 -0.867 0.19 -1.732 0.783 -2.374 c 0.589 -0.637 1.407 -0.982 2.288 -0.958 c 2.224 0.073 3.345 1.159 3.895 2.056 c 1.301 2.126 0.957 5.779 -0.921 9.77 c -0.27 0.631 -0.076 0.908 -0.003 1.014 c 0.521 0.747 2.424 1.213 4.513 1.096 c 1.438 -0.159 2.57 -2.573 3.768 -5.13 c 2.035 -4.337 4.813 -10.277 11.851 -8.751 c 1.021 0.221 1.813 0.992 2.021 1.964 c 0.367 1.73 -0.967 2.837 -2.38 4.008 c -1.422 1.179 -3.192 2.646 -4.075 5.213 c -2.98 9.322 -8.705 14.783 -17.006 16.211 C 37.587 69.946 37.53 69.951 37.474 69.951 z M 30.902 60.938 l 6.909 6.935 c 7.235 -1.426 12.26 -6.395 14.941 -14.776 c 1.071 -3.119 3.167 -4.855 4.696 -6.123 c 1.16 -0.961 1.811 -1.53 1.699 -2.052 c -0.042 -0.2 -0.238 -0.371 -0.488 -0.425 c -5.48 -1.196 -7.578 3.302 -9.614 7.646 c -1.443 3.078 -2.808 5.987 -5.417 6.273 c -2.338 0.121 -5.183 -0.321 -6.315 -1.944 c -0.412 -0.591 -0.778 -1.587 -0.18 -2.979 c 1.557 -3.311 1.959 -6.401 1.039 -7.906 c -0.432 -0.706 -1.169 -1.065 -2.254 -1.101 c -0.301 -0.012 -0.556 0.104 -0.754 0.318 c -0.199 0.215 -0.295 0.505 -0.263 0.795 c 0.332 3.013 -1.155 5.421 -2.467 7.546 C 30.858 55.695 29.495 57.903 30.902 60.938 z" style="stroke: none; stroke-width: 1; stroke-dasharray: none; stroke-linecap: butt; stroke-linejoin: miter; stroke-miterlimit: 10; fill: rgb(0,0,0); fill-rule: nonzero; opacity: 1;" transform=" matrix(1 0 0 1 0 0) " stroke-linecap="round"/>
	<path d="M 27.752 81.745 H 9.148 c -0.412 0 -0.782 -0.253 -0.932 -0.637 c -0.15 -0.385 -0.048 -0.821 0.255 -1.1 l 20.925 -19.223 c 0.396 -0.361 1.006 -0.35 1.385 0.03 l 7.401 7.429 c 0.363 0.364 0.39 0.945 0.063 1.342 l -9.722 11.794 C 28.333 81.611 28.051 81.745 27.752 81.745 z M 11.715 79.745 H 27.28 l 8.846 -10.73 l -6.084 -6.106 L 11.715 79.745 z" style="stroke: none; stroke-width: 1; stroke-dasharray: none; stroke-linecap: butt; stroke-linejoin: miter; stroke-miterlimit: 10; fill: rgb(0,0,0); fill-rule: nonzero; opacity: 1;" transform=" matrix(1 0 0 1 0 0) " stroke-linecap="round"/>
	<polygon points="24.72,66.38 32.98,74.41 37.47,68.95 30.07,61.52 " style="stroke: none; stroke-width: 1; stroke-dasharray: none; stroke-linecap: butt; stroke-linejoin: miter; stroke-miterlimit: 10; fill: rgb(237,84,105); fill-rule: nonzero; opacity: 1;" transform="  matrix(1 0 0 1 0 0) "/>
	<path d="M 32.976 75.408 c -0.26 0 -0.51 -0.101 -0.697 -0.283 l -8.26 -8.029 c -0.198 -0.192 -0.308 -0.458 -0.303 -0.734 s 0.124 -0.538 0.328 -0.724 l 5.356 -4.856 c 0.396 -0.358 1.003 -0.344 1.38 0.035 l 7.401 7.429 c 0.363 0.364 0.39 0.945 0.063 1.342 l -4.498 5.457 c -0.178 0.216 -0.438 0.348 -0.716 0.362 C 33.013 75.407 32.994 75.408 32.976 75.408 z M 26.177 66.404 l 6.718 6.53 l 3.231 -3.92 l -6.088 -6.11 L 26.177 66.404 z" style="stroke: none; stroke-width: 1; stroke-dasharray: none; stroke-linecap: butt; stroke-linejoin: miter; stroke-miterlimit: 10; fill: rgb(0,0,0); fill-rule: nonzero; opacity: 1;" transform=" matrix(1 0 0 1 0 0) " stroke-linecap="round"/>
</g>
</svg>